<svg width="134" height="27" viewBox="0 0 134 27" fill="none" xmlns="http://www.w3.org/2000/svg">
<g clip-path="url(#clip0_1_479)">
<path d="M91.9823 22.233C90.6855 22.233 89.4083 21.8486 88.5163 20.9785L89.2664 20.0275C90.1175 20.7357 91.0297 21.019 91.9621 21.019C93.4417 21.019 94.7391 20.1692 94.7391 18.5101V16.9723C94.2323 17.9031 93.1782 18.5708 91.9016 18.5708C89.6314 18.5708 88.0302 16.8509 88.0302 14.2003C88.0302 11.8128 89.5703 9.7085 91.9419 9.7085C94.2323 9.7085 94.8204 11.226 94.8204 11.226V9.7085C95.5297 9.7085 96.0971 10.275 96.0971 10.9832V11.4283V18.2672C96.0769 20.9988 94.2323 22.233 91.9823 22.233ZM92.0636 10.9832C90.3407 10.9832 89.3881 12.5007 89.3881 14.1396C89.3881 16.0011 90.3608 17.3567 92.104 17.3567C93.7052 17.3567 94.8002 15.819 94.8002 14.1801C94.8002 12.4603 93.6851 10.9832 92.0636 10.9832Z" fill="#323232"/>
<path d="M36.1404 14.2C36.1809 15.9806 37.2755 17.3565 39.12 17.3565C40.3767 17.3565 41.2077 16.9113 41.978 16.2032L42.8495 17.053C42.0793 17.8623 40.8834 18.5907 39.0997 18.5907C36.4242 18.5907 34.8026 16.6483 34.8026 14.0584C34.8026 11.772 36.4039 9.72852 38.9984 9.72852C41.1875 9.72852 42.505 11.1853 42.9104 13.0872C43.032 13.674 42.5658 14.2 41.978 14.2H36.1404ZM38.9173 10.9425C37.3565 10.9425 36.4242 11.9137 36.2012 13.1277H41.4915C41.2888 12.0148 40.4172 10.9425 38.9173 10.9425Z" fill="#323232"/>
<path d="M47.4912 20.2296C47.1061 21.2818 46.4574 22.1316 45.1602 22.1316C44.6535 22.1316 44.2684 22.0709 43.8629 21.909V20.6545C44.167 20.8164 44.4507 20.8973 44.8156 20.8973C45.8291 20.8973 46.1128 20.1892 46.4169 19.3596L46.802 18.3681L43.64 9.97119H45.0791L47.6128 16.5876L50.0451 9.97119H51.4437L47.4912 20.2296Z" fill="#323232"/>
<path d="M53.4706 14.2C53.5111 15.9806 54.6056 17.3565 56.4504 17.3565C57.7069 17.3565 58.5378 16.9113 59.3081 16.2032L60.18 17.053C59.3894 17.8623 58.2137 18.5907 56.4297 18.5907C53.7543 18.5907 52.1328 16.6483 52.1328 14.0584C52.1328 11.772 53.7341 9.72852 56.3288 9.72852C58.5176 9.72852 59.8352 11.1853 60.2405 13.0872C60.3622 13.674 59.8957 14.2 59.3081 14.2H53.4706ZM56.2475 10.9425C54.6867 10.9425 53.7543 11.9137 53.5314 13.1277H58.8215C58.6393 12.0148 57.7472 10.9425 56.2475 10.9425Z" fill="#323232"/>
<path d="M65.0853 18.4083C63.5849 18.4083 62.6323 17.8216 62.6323 16.1624V11.2052H61.3961V9.97101H62.6323V6.06592H63.9701V9.97101H65.5512V11.2052H63.9701V16.1219C63.9701 16.7694 64.3149 17.1539 65.1256 17.1539H65.5714V18.3881C65.5714 18.3881 65.1256 18.4083 65.0853 18.4083Z" fill="#323232"/>
<path d="M68.2671 14.2C68.3081 15.9806 69.4025 17.3565 71.2471 17.3565C72.5036 17.3565 73.3345 16.9113 74.1048 16.2032L74.9767 17.053C74.2063 17.8623 73.0104 18.5907 71.2269 18.5907C68.5508 18.5907 66.9294 16.6483 66.9294 14.0584C66.9294 11.772 68.5307 9.72852 71.1254 9.72852C73.3143 9.72852 74.6319 11.1853 75.0372 13.0872C75.1589 13.674 74.693 14.2 74.1048 14.2H68.2671ZM71.0441 10.9425C69.4832 10.9425 68.5508 11.9137 68.3283 13.1277H73.6182C73.4158 12.0148 72.5439 10.9425 71.0441 10.9425Z" fill="#323232"/>
<path d="M76.9423 18.3479V6.08643H78.2801V18.3479H76.9423Z" fill="#323232"/>
<path d="M80.8749 18.3479V6.08643H82.2127V18.3479H80.8749Z" fill="#323232"/>
<path d="M84.6852 7.84694V5.88428H85.0704C85.5974 5.88428 86.0229 6.30918 86.0229 6.83527V7.84694H84.6852ZM84.6852 18.3482V9.97142H86.0229V18.3279H84.6852V18.3482Z" fill="#323232"/>
<path d="M99.3198 14.2C99.3607 15.9806 100.455 17.3565 102.3 17.3565C103.556 17.3565 104.387 16.9113 105.158 16.2032L106.029 17.053C105.239 17.8623 104.063 18.5907 102.28 18.5907C99.6035 18.5907 97.9821 16.6483 97.9821 14.0584C97.9821 11.772 99.5833 9.72852 102.178 9.72852C104.367 9.72852 105.685 11.1853 106.09 13.0872C106.212 13.674 105.746 14.2 105.158 14.2H99.3198ZM102.097 10.9425C100.536 10.9425 99.6035 11.9137 99.3809 13.1277H104.671C104.468 12.0148 103.597 10.9425 102.097 10.9425Z" fill="#323232"/>
<path d="M113.711 18.3479V13.0063C113.711 11.8125 113.042 10.9627 111.745 10.9627C110.184 10.9627 109.333 12.3386 109.333 13.5122V18.3479H107.995V10.9222C107.995 10.3962 108.421 9.97131 108.948 9.97131H109.333V11.1853C109.84 10.2748 110.833 9.72852 111.948 9.72852C113.833 9.72852 115.049 10.9425 115.049 12.7837V18.3479H113.711Z" fill="#323232"/>
<path d="M121.028 18.5907C118.414 18.5907 116.772 16.6281 116.772 14.1394C116.772 11.7316 118.515 9.72852 120.927 9.72852C122.833 9.72852 123.907 10.6997 124.515 11.4888L123.501 12.2779C122.954 11.5697 122.164 10.983 120.988 10.983C119.265 10.983 118.13 12.46 118.13 14.0787C118.13 15.9806 119.326 17.3565 120.968 17.3565C122.164 17.3565 122.995 16.7697 123.704 15.8187L124.677 16.5269C123.907 17.66 122.609 18.5907 121.028 18.5907Z" fill="#323232"/>
<path d="M127.211 14.2C127.251 15.9806 128.346 17.3565 130.19 17.3565C131.447 17.3565 132.278 16.9113 133.048 16.2032L133.92 17.053C133.149 17.8623 131.954 18.5907 130.17 18.5907C127.495 18.5907 125.873 16.6483 125.873 14.0584C125.873 11.772 127.474 9.72852 130.069 9.72852C132.258 9.72852 133.575 11.1853 133.98 13.0872C134.102 13.674 133.636 14.2 133.048 14.2H127.211ZM129.988 10.9425C128.427 10.9425 127.494 11.9137 127.271 13.1277H132.562C132.359 12.0148 131.488 10.9425 129.988 10.9425Z" fill="#323232"/>
<path d="M15.1479 0.21875C6.3708 0.21875 0 4.87245 0 13.2694C0 20.9783 7.23867 26.2188 14.9507 26.2188C23.0572 26.2188 30 20.8772 30 13.067C30 4.77128 22.8599 0.21875 15.1479 0.21875ZM17.5543 21.0795C12.8994 21.0795 8.56015 18.5907 8.56015 14.9082C8.56015 10.9021 12.3866 8.69658 17.6726 8.69658C22.3274 8.69658 26.6272 10.8615 26.6272 14.8273C26.6075 18.53 22.426 21.0795 17.5543 21.0795Z" fill="url(#paint0_radial_1_479)"/>
</g>
<defs>
<radialGradient id="paint0_radial_1_479" cx="0" cy="0" r="1" gradientUnits="userSpaceOnUse" gradientTransform="translate(15.0525 13.231) scale(14.2691 11.4599)">
<stop offset="0.00180756" stop-color="#323232" stop-opacity="0"/>
<stop offset="0.9986" stop-color="#888888"/>
</radialGradient>
<clipPath id="clip0_1_479">
<rect width="134" height="26" fill="white" transform="translate(0 0.21875)"/>
</clipPath>
</defs>
</svg>
