<svg width="147" height="21" viewBox="0 0 147 21" fill="none" xmlns="http://www.w3.org/2000/svg">
<g clip-path="url(#clip0_1_505)">
<path d="M42.1517 0.913086H32.8756L40.7463 10.4297L27.2538 20.2181H36.2488L44.1194 14.2364L49.1791 20.2181H58.4551L50.0223 10.4297L63.5148 0.913086H54.2387L46.6492 6.35114L42.1517 0.913086Z" fill="#888888"/>
<path d="M72.2292 13.9649L63.2342 0.641602L71.9481 0.913504L77.0078 8.79868L85.4406 0.913504H94.4355L78.9754 13.9649L77.2888 20.2185H70.5426L72.2292 13.9649Z" fill="#888888"/>
<path d="M99.214 0.641602L93.3111 6.07966H110.768C111.672 6.07966 112.182 7.11905 111.628 7.83369C111.422 8.09939 111.104 8.25488 110.768 8.25488H100.901L96.122 12.6053H108.624C109.444 12.6053 109.88 13.5741 109.336 14.1882C109.156 14.392 108.896 14.5086 108.624 14.5086H94.1543L88.2514 20.2185H108.76C112.147 20.2185 115.179 18.1146 116.363 14.941L117.064 13.0635C117.54 11.7885 116.597 10.43 115.236 10.43C116.56 10.43 117.717 9.53466 118.048 8.25289L119.042 4.40754C119.534 2.50067 118.095 0.641602 116.125 0.641602H99.214Z" fill="#888888"/>
<path d="M126.199 0.641602L120.296 6.07966H137.753C138.657 6.07966 139.167 7.11905 138.613 7.83369C138.407 8.09939 138.089 8.25488 137.753 8.25488H127.886L123.107 12.6053H135.609C136.43 12.6053 136.865 13.5741 136.321 14.1882C136.141 14.392 135.881 14.5086 135.609 14.5086H121.139L115.236 20.2185H135.745C139.132 20.2185 142.164 18.1146 143.348 14.941L144.049 13.0635C144.525 11.7885 143.582 10.43 142.221 10.43C143.545 10.43 144.702 9.53466 145.033 8.25289L146.027 4.40754C146.52 2.50067 145.08 0.641602 143.11 0.641602H126.199Z" fill="#888888"/>
<path fill-rule="evenodd" clip-rule="evenodd" d="M1.70654 17.4361C2.30626 17.9962 2.98869 18.4363 3.77453 18.7763C7.3408 20.2908 11.0654 20.245 14.8753 20.1982L15.0037 20.1966C16.4929 20.1966 18.11 19.9729 19.5533 19.6164C21.135 19.2197 22.5739 18.7856 24.0201 18.0361C25.492 17.2734 26.6726 16.2575 27.7425 15.0155C28.3808 14.2747 28.8205 13.4361 29.2108 12.5552C30.0888 10.5168 30.8861 7.19042 30.1 5.17375C30.0854 5.137 30.0708 5.10005 30.0561 5.06296C29.8633 4.57529 29.6616 4.06528 29.3349 3.69348C28.6318 2.91333 27.8253 2.2132 26.7913 1.73311C25.6952 1.21301 24.5785 0.852946 23.4411 0.652909C21.887 0.377296 19.0313 0.125256 16.2031 0.252834C13.9025 0.356618 11.5031 0.636154 9.29606 1.29303C7.52042 1.78377 6.13821 2.63721 4.62241 3.59346C3.93997 4.01354 3.44365 4.57364 2.94734 5.15375C2.21031 5.86667 1.62558 6.81364 1.25158 7.75424C0.460154 9.77748 0.189032 11.6889 0.0107895 13.8153C-0.114157 15.0239 0.870368 16.6273 1.70654 17.4361ZM12.1087 5.97335C11.0748 6.15338 10.1235 6.43343 9.23424 6.97354C7.3506 8.08455 6.95945 10.5557 6.95945 12.4746C6.95945 12.9547 7.60053 13.8349 8.05549 13.9949C11.4552 15.1488 16.5225 15.1673 19.8844 14.0548C20.6289 13.8148 21.2286 13.4548 21.7663 12.9347C22.8573 11.8429 23.5241 9.98683 23.5241 8.47381C23.5241 7.3136 22.8209 6.35342 21.6629 6.13338C18.6208 5.55921 15.1537 5.44318 12.1087 5.97335Z" fill="#888888"/>
</g>
<defs>
<clipPath id="clip0_1_505">
<rect width="147" height="20" fill="white" transform="translate(0 0.21875)"/>
</clipPath>
</defs>
</svg>
