<svg width="56" height="58" viewBox="0 0 56 58" fill="none" xmlns="http://www.w3.org/2000/svg">
<g clip-path="url(#clip0_1_535)">
<path d="M46.9344 10.843C46.9069 10.843 46.852 10.8017 46.8382 10.733C46.8108 10.6369 46.852 10.5544 46.9619 10.5407C47.0443 10.5269 47.0855 10.5819 47.0993 10.6506C47.1268 10.7468 47.0993 10.8155 46.9344 10.843Z" fill="#888888"/>
<path d="M40.3808 27.3034C40.3533 27.2759 40.3121 27.2347 40.3121 27.2072C40.3258 27.1248 40.3808 27.0974 40.4495 27.1386C40.477 27.1523 40.5045 27.2209 40.4907 27.2484C40.477 27.2759 40.422 27.2896 40.3808 27.3034Z" fill="#888888"/>
<path d="M20.967 13.6462C20.9807 13.6187 20.9945 13.5637 21.0357 13.55C21.1181 13.5225 21.1594 13.5637 21.1731 13.6462C21.1731 13.6874 21.1456 13.7423 21.1181 13.7561C21.0494 13.7561 20.9807 13.7423 20.967 13.6462Z" fill="#888888"/>
<path d="M8.12011 14.6079C8.09263 14.6628 8.05141 14.6766 8.03767 14.6354C8.02393 14.6079 8.02393 14.5667 8.02393 14.5254C8.02393 14.5117 8.05141 14.498 8.06514 14.498C8.1201 14.5254 8.13384 14.5529 8.12011 14.6079Z" fill="#888888"/>
<path d="M55.8794 25.2416C55.8519 25.2965 55.8107 25.3103 55.7695 25.2828C55.742 25.2691 55.7283 25.2278 55.7008 25.2004C55.742 25.1866 55.7832 25.1592 55.8107 25.1592C55.8382 25.1592 55.8519 25.2141 55.8794 25.2416Z" fill="#888888"/>
<path d="M34.0335 12.3814C34.006 12.3676 33.9785 12.3539 33.951 12.3264C33.9647 12.3127 33.9785 12.2852 33.9922 12.2852C34.0197 12.2989 34.0472 12.3127 34.0746 12.3264C34.0609 12.3402 34.0473 12.3539 34.0335 12.3814Z" fill="#888888"/>
<path d="M19.0573 13.8795C19.0847 13.3711 19.3321 12.9864 19.5656 12.6017C20.9396 10.3896 22.3136 8.16371 23.6876 5.95161C24.773 4.19293 25.8722 2.44798 26.9576 0.689294C27.3286 0.098485 27.8232 0.084746 28.2217 0.675555C29.5407 2.69529 30.8597 4.71504 32.165 6.72104C33.8687 9.33159 35.5862 11.9559 37.2899 14.5665C38.8836 17.0121 40.4775 19.4578 42.0713 21.9035C43.2667 23.7446 44.4758 25.572 45.6711 27.3994C46.0833 28.0314 46.0971 28.7047 45.7124 29.3504C43.7476 32.6342 41.7553 35.918 39.7768 39.2018C39.2271 40.1086 38.6776 41.0155 38.128 41.9223C37.7845 42.4856 37.3036 42.5131 36.9464 41.9635C35.8747 40.3285 34.8167 38.6934 33.7588 37.0584C32.426 34.9974 31.0933 32.9365 29.7605 30.8755C28.5239 28.9657 27.2874 27.0421 26.037 25.1323C24.7043 23.0851 23.3715 21.0379 22.0388 18.9907C21.1182 17.5892 20.1977 16.1877 19.3046 14.7726C19.1809 14.5252 19.1534 14.1817 19.0573 13.8795Z" fill="#888888"/>
<path d="M0.0961778 13.3301C-0.0686991 12.6843 0.357233 12.2309 0.645767 11.7638C2.77543 8.31513 4.93257 4.86646 7.07597 1.40405C7.26832 1.10177 7.4332 0.799496 7.6393 0.510961C7.92783 0.126248 8.3675 0.126248 8.6423 0.524701C9.35676 1.5964 10.0575 2.68184 10.772 3.76728C12.0085 5.66337 13.2589 7.57319 14.4954 9.46927C15.6358 11.2279 16.7762 12.9866 17.9166 14.7453C19.2219 16.765 20.5409 18.771 21.8599 20.7908C22.753 22.1648 23.6461 23.5387 24.5392 24.9265C25.1025 25.7921 25.6796 26.6577 26.2429 27.537C26.6139 28.1141 26.6414 28.7598 26.2979 29.3232C25.1849 31.2055 24.0445 33.0741 22.9041 34.9427C21.6676 36.9899 20.4447 39.0509 19.2082 41.0981C19.0021 41.4554 18.796 41.7988 18.5487 42.1423C18.2601 42.5545 17.8204 42.5545 17.5594 42.1286C16.5701 40.5485 15.5809 38.9547 14.5916 37.3747C13.2588 35.2175 11.9261 33.0741 10.5933 30.917C9.16441 28.6087 7.73547 26.3004 6.30654 23.9922C4.89135 21.7114 3.46241 19.4168 2.04722 17.136C1.47015 16.2017 0.879344 15.2812 0.329754 14.3331C0.164877 14.0446 0.109918 13.6873 0 13.3576C0.0137397 13.3439 0.0549585 13.3301 0.0961778 13.3301Z" fill="#888888"/>
<path d="M55.3163 12.6704C55.3575 13.2474 55.1514 13.7147 54.8629 14.1818C53.1179 17.0396 51.4005 19.925 49.6693 22.7966C48.9823 23.937 48.2815 25.0774 47.5808 26.2178C47.2098 26.8224 46.7564 26.8223 46.3717 26.2316C44.4894 23.36 42.5933 20.4883 40.7109 17.6166C40.0789 16.6549 39.4469 15.6931 38.8149 14.7313C38.4027 14.0856 38.4027 13.4261 38.7874 12.7941C40.7384 9.60643 42.7032 6.44629 44.668 3.25867C45.1626 2.44802 45.6573 1.63738 46.1519 0.840472C46.2068 0.758034 46.2618 0.661857 46.3168 0.579418C46.6603 0.0985273 47.1274 0.0985273 47.4572 0.579418C48.0205 1.37632 48.5563 2.17323 49.1197 2.97013C50.6448 5.18223 52.1699 7.38059 53.695 9.59269C54.1759 10.2935 54.6843 10.953 55.1239 11.6812C55.2751 11.956 55.2476 12.3407 55.3163 12.6704Z" fill="#888888"/>
<path d="M12.0088 49.6173C11.8302 50.373 11.6791 51.0463 11.5142 51.7195C11.2394 52.9424 10.9646 54.1652 10.6761 55.388C10.4975 56.1437 9.96163 56.5559 9.19221 56.5422C8.79376 56.5422 8.38156 56.5284 8.01059 56.4185C7.79076 56.3498 7.5297 56.1025 7.461 55.8827C7.24117 55.1545 7.07629 54.3988 6.92515 53.6568C6.65036 52.3378 6.40304 51.0188 6.14199 49.6998C6.01833 49.0678 5.88093 48.422 5.77101 47.79C5.71606 47.4465 5.85345 47.3091 6.19695 47.2953C6.65036 47.2953 7.11751 47.3091 7.57092 47.2953C7.84571 47.2816 7.96937 47.4327 7.99685 47.68C8.18921 48.9853 8.36782 50.2769 8.56018 51.5821C8.71132 52.5851 8.8762 53.5881 9.10977 54.6049C9.19221 54.2889 9.27465 53.9591 9.34335 53.6431C9.72806 51.8981 10.099 50.1395 10.4837 48.3945C10.6074 47.8449 10.8272 47.6663 11.3768 47.6663C11.8165 47.6663 12.2699 47.6663 12.7096 47.6663C13.1217 47.6663 13.3553 47.8312 13.4515 48.2296C13.6576 49.0952 13.8362 49.9608 14.0286 50.8264C14.3034 52.0768 14.5919 53.3408 14.9491 54.6049C15.0041 54.2889 15.059 53.9728 15.1003 53.6568C15.2789 52.4752 15.4575 51.2799 15.6224 50.0982C15.7323 49.3425 15.8422 48.5869 15.9521 47.8312C16.0071 47.3915 16.117 47.2953 16.5704 47.2953C16.9689 47.2953 17.3673 47.2953 17.7658 47.2953C18.1368 47.2953 18.2879 47.4877 18.2192 47.8312C17.9032 49.3975 17.6009 50.9638 17.2849 52.5302C17.0925 53.4919 16.9002 54.4537 16.7078 55.4155C16.5429 56.2536 16.1582 56.5559 15.3064 56.5559C14.9766 56.5559 14.6331 56.5697 14.3171 56.4872C13.5477 56.2811 13.3553 55.6216 13.2042 54.9484C12.8195 53.2446 12.4348 51.5409 12.05 49.8372C12.0913 49.7822 12.0638 49.741 12.0088 49.6173Z" fill="#888888"/>
<path d="M31.821 52.7077C31.821 53.7519 31.821 54.7824 31.821 55.8266C31.821 56.4174 31.7386 56.5136 31.1615 56.5136C30.8043 56.5136 30.447 56.5136 30.1035 56.5136C29.8013 56.5136 29.6501 56.3899 29.6501 56.0602C29.6501 52.213 29.6501 48.3796 29.6501 44.5325C29.6501 44.2302 29.8013 44.0928 30.0898 44.0928C30.4882 44.0928 30.8867 44.0928 31.2851 44.0928C31.7248 44.0928 31.8347 44.2165 31.8347 44.6424C31.8347 46.6347 31.8347 48.627 31.8347 50.6192C31.8347 50.7429 31.8347 50.8665 31.8347 51.1001C31.9721 50.949 32.0546 50.8665 32.1233 50.7704C32.9064 49.7261 33.6759 48.6819 34.459 47.6377C34.6376 47.4041 34.8437 47.2805 35.1598 47.2942C35.6681 47.3217 36.1902 47.2942 36.6986 47.3079C36.8085 47.3079 36.9734 47.3629 37.0146 47.4316C37.0558 47.514 36.9871 47.6789 36.9184 47.7614C35.9429 48.9842 34.9537 50.1933 33.9507 51.3886C33.772 51.6085 33.772 51.7459 33.9369 51.9795C34.9537 53.3397 35.9567 54.7137 36.9597 56.0876C37.1245 56.3075 37.0421 56.4998 36.781 56.5136C36.1215 56.5273 35.4483 56.541 34.7888 56.4998C34.6239 56.4861 34.4453 56.3212 34.3354 56.1701C33.6072 55.1533 32.9064 54.1091 32.192 53.0786C32.1095 52.955 32.0134 52.8313 31.9172 52.6939C31.876 52.6802 31.8485 52.6939 31.821 52.7077Z" fill="#888888"/>
<path d="M38.7322 52.6536C38.5673 53.7115 39.268 54.6596 40.271 54.6733C41.3152 54.687 42.3457 54.6183 43.3899 54.5771C43.8708 54.5496 43.9395 54.5909 43.9395 55.058C43.9395 55.3465 43.9258 55.6351 43.9395 55.9099C43.9533 56.1847 43.8159 56.2808 43.5686 56.3358C42.2358 56.6518 40.8756 56.5969 39.5428 56.4869C38.32 56.3908 37.3719 55.6626 36.8773 54.4947C36.6712 54.0001 36.5476 53.4367 36.5201 52.9146C36.4789 51.9941 36.4789 51.0597 36.6025 50.1529C36.8223 48.4767 38.1414 47.3225 39.8451 47.1989C40.8069 47.1302 41.7412 47.1989 42.5793 47.7347C43.5411 48.353 44.0357 49.2598 44.2006 50.3453C44.283 50.9361 44.2693 51.5544 44.283 52.1589C44.2968 52.5436 44.1868 52.6536 43.8021 52.6536C42.2633 52.6536 40.7382 52.6536 39.1993 52.6536C39.0344 52.6536 38.8971 52.6536 38.7322 52.6536ZM42.0572 51.0735C42.0572 50.3178 41.8786 49.6583 41.2053 49.2873C40.6557 48.985 40.0512 48.985 39.5153 49.3148C38.8696 49.6995 38.6635 50.3315 38.7047 51.0872C39.8314 51.0735 40.9305 51.0735 42.0572 51.0735Z" fill="#888888"/>
<path d="M23.3162 55.9521C23.1101 56.0483 22.9727 56.117 22.8353 56.1994C21.9423 56.6803 20.953 56.6254 20.0187 56.488C19.1393 56.3506 18.576 55.746 18.3424 54.8392C18.1501 54.056 18.1501 53.2866 18.4661 52.5584C18.8646 51.6379 19.6889 51.2531 20.6232 51.1295C21.3652 51.0333 22.1209 51.0333 22.8766 51.0058C23.1239 51.0058 23.2338 50.9234 23.2063 50.6761C23.1926 50.5112 23.2063 50.3326 23.2063 50.1677C23.1788 49.412 22.8353 49.041 22.0934 49.0273C21.3927 49.0136 20.6782 49.0548 19.9637 49.0823C19.7027 49.096 19.4416 49.1235 19.1806 49.1372C18.892 49.1647 18.7546 49.041 18.7546 48.7525C18.7546 48.464 18.7546 48.1754 18.7546 47.9006C18.7546 47.6533 18.8508 47.5022 19.0844 47.461C19.5515 47.3785 20.0324 47.2686 20.4996 47.2549C21.3789 47.2411 22.272 47.1862 23.1239 47.3236C24.5665 47.5571 25.3909 48.6563 25.4047 50.2089C25.4184 52.1325 25.4047 54.056 25.4047 55.9659C25.4047 56.3781 25.281 56.5017 24.8688 56.5017C24.5391 56.5017 24.2093 56.5017 23.8796 56.5017C23.5498 56.5155 23.3025 56.4193 23.3162 55.9521ZM23.2063 52.5035C22.588 52.5035 22.011 52.4485 21.4476 52.5172C20.5683 52.6271 20.1011 53.8225 20.6095 54.5507C20.6782 54.6469 20.8156 54.7293 20.9393 54.7705C21.6812 55.0178 22.3819 54.798 23.0552 54.482C23.1239 54.4545 23.1926 54.3308 23.1926 54.2484C23.2201 53.6713 23.2063 53.108 23.2063 52.5035Z" fill="#888888"/>
<path d="M26.4214 50.2625C26.4214 48.3802 26.4214 46.4841 26.4214 44.6018C26.4214 44.1758 26.5313 44.0659 26.9435 44.0659C27.3145 44.0659 27.6992 44.0659 28.0702 44.0659C28.5099 44.0659 28.6198 44.1758 28.6198 44.6018C28.6198 45.5773 28.6198 46.5391 28.6198 47.5146C28.6198 50.2763 28.6198 53.0517 28.6198 55.8134C28.6198 56.4179 28.5511 56.4866 27.9603 56.4866C27.6305 56.4866 27.3008 56.4866 26.971 56.4866C26.5313 56.4866 26.4214 56.3767 26.4214 55.9371C26.4214 54.0547 26.4214 52.1586 26.4214 50.2625Z" fill="#888888"/>
<path d="M47.0581 47.7759C47.6077 47.5973 48.1435 47.405 48.6794 47.2263C48.6931 47.2263 48.7069 47.2263 48.7069 47.2126C49.545 47.0615 49.6687 47.1576 49.6687 47.9958C49.6687 48.1744 49.6549 48.3667 49.6687 48.5454C49.6824 48.8614 49.5587 48.9713 49.2427 49.0262C48.6382 49.1362 48.0474 49.301 47.4566 49.4384C47.1818 49.5071 47.1131 49.672 47.1131 49.9331C47.1268 51.9116 47.1131 53.8901 47.1131 55.8686C47.1131 56.3907 47.0169 56.4869 46.481 56.4869C46.1101 56.4869 45.7528 56.5007 45.3819 56.4869C45.0246 56.4732 44.9147 56.3495 44.9147 56.006C44.9147 53.2443 44.9147 50.4964 44.9147 47.7347C44.9147 47.3637 45.0109 47.2676 45.3819 47.2676C45.7116 47.2676 46.0414 47.2676 46.3711 47.2676C46.9482 47.2813 46.9619 47.295 47.0581 47.7759Z" fill="#888888"/>
</g>
<defs>
<clipPath id="clip0_1_535">
<rect width="56" height="57" fill="white" transform="translate(0 0.21875)"/>
</clipPath>
</defs>
</svg>
