<svg width="87" height="39" viewBox="0 0 87 39" fill="none" xmlns="http://www.w3.org/2000/svg">
<g clip-path="url(#clip0_1_496)">
<path d="M63.6592 12.3701H55.2246L50.8982 19.1391L46.4992 12.3701H37.6283L46.2447 24.7436L37.7737 37.0443H46.0629C46.3901 36.5348 47.1172 35.4431 48.2079 33.769C49.2986 32.0949 50.0984 30.8576 50.571 30.0933L55.1156 37.0443H63.9501C63.5865 36.4984 60.6417 32.3133 55.1156 24.4525L63.6592 12.3701Z" fill="#888888"/>
<path d="M28.0308 11.7881C21.0141 11.7881 15.3426 17.4653 15.3426 24.4891C15.3426 31.5129 21.0141 37.1901 28.0308 37.1901C35.0476 37.1901 40.7191 31.5129 40.7191 24.4891C40.7191 17.4653 35.0476 11.7881 28.0308 11.7881ZM28.0308 30.5303C24.6861 30.5303 21.9957 27.8372 21.9957 24.4891C21.9957 21.141 24.6861 18.4479 28.0308 18.4479C31.3756 18.4479 34.0659 21.141 34.0659 24.4891C34.0659 27.8008 31.3756 30.5303 28.0308 30.5303Z" fill="#888888"/>
<path d="M16.8692 12.3336H11.4885V10.4412C11.4885 9.2039 11.8157 8.33048 12.4701 7.85737C13.1245 7.34788 13.888 7.09313 14.7242 7.09313C15.5604 7.09313 16.2875 7.16591 16.9783 7.34788V1.16112C16.2512 0.797198 15.0514 0.615234 13.379 0.615234C10.4342 0.615234 8.1074 1.48866 6.43502 3.23551C4.76264 4.98235 3.92645 7.31148 3.92645 10.1865V12.3336H0V18.7024H3.92645V37.1171H11.4885V18.7024H15.0514C15.524 17.647 16.1421 16.7007 16.8692 15.8273V12.3336Z" fill="#888888"/>
<path d="M81.2194 23.9078C83.1463 24.6357 85.5821 24.1262 86.8909 22.7432C87.0727 22.5249 87 22.1974 86.7819 22.0882C85.5458 21.4695 84.7096 20.4141 84.0188 19.2132C83.9097 18.9948 83.7643 18.8128 83.6553 18.5945C84.5642 18.6309 85.3276 18.4125 85.3276 18.4125C85.0004 18.4853 84.5278 18.3397 83.9825 18.0486C84.3824 17.9758 84.6732 17.8666 84.6732 17.8666C84.2733 18.0122 83.3644 17.4663 82.4919 16.7385C82.4555 16.7021 82.4555 16.7021 82.4191 16.6657C80.2378 14.6277 76.8567 12.4805 72.3485 12.4805C67.8404 12.4805 63.1504 15.865 61.3326 20.2322C60.8237 21.142 59.9875 22.4157 59.1149 22.4157C59.1149 22.4157 60.1329 22.5249 60.6782 22.2338C60.4601 23.2164 59.9875 25.5819 60.0238 26.055L61.5871 23.2164C61.1509 24.0534 60.3147 26.3461 61.4417 29.3303C61.5871 28.1658 62.0234 27.0376 62.0234 27.0376C61.7689 29.0028 61.9507 30.2037 62.3506 31.3319C62.6778 32.1326 63.1141 32.8604 63.6958 33.5519C66.168 36.2085 69.7672 37.8098 73.6937 37.5551C73.6937 37.5551 73.6937 37.5551 73.7301 37.5551C79.8742 37.1547 84.8914 32.2053 85.4003 26.0914C85.4367 25.5455 85.4731 24.854 85.4367 24.3445C85.4367 24.3445 84.0188 25.1088 82.2737 24.9268C80.7468 24.7448 79.038 23.5075 78.6745 23.18C78.6745 23.2164 78.6745 23.2527 78.7108 23.2527C78.7472 23.3255 78.7472 23.3983 78.7835 23.4711C78.8199 23.5439 78.8199 23.6531 78.8563 23.7258C78.8926 23.835 78.8926 23.9078 78.929 24.017C78.929 24.0898 78.9653 24.1626 78.9653 24.2353C79.0017 24.5265 79.038 24.8176 79.038 25.1088C79.038 28.4569 76.3113 31.1863 72.9666 31.1863C69.6218 31.1863 66.8951 28.4569 66.8951 25.1088V25.1452C66.8951 23.5439 67.5132 22.0518 68.5311 20.96C68.5311 20.96 68.5311 20.96 68.5675 20.9236C68.8947 20.5961 69.2583 20.2685 69.6582 20.0138L69.6945 19.9774C69.6945 19.9774 69.7309 19.9774 69.7309 19.941C69.8036 19.9046 69.84 19.8682 69.9127 19.8318C69.9854 19.7954 70.0217 19.7591 70.0945 19.7227C70.0945 19.7227 70.0944 19.7227 70.1308 19.7227C70.2762 19.6499 70.4217 19.5771 70.5671 19.5043C70.6034 19.5043 70.6034 19.4679 70.6398 19.4679C71.3669 19.1404 72.1667 18.9948 73.0029 18.9948C73.1847 18.9948 73.3665 18.9948 73.5483 19.0312C74.1663 19.0676 74.7844 19.2496 75.3661 19.4679C75.4024 19.4679 75.4024 19.4679 75.4388 19.5043C75.6206 19.5771 75.766 19.6499 75.9478 19.759C75.9478 19.759 75.9841 19.7591 75.9841 19.7954C76.3477 20.0138 76.7112 20.2685 77.0385 20.5233C77.2929 20.8144 77.5838 21.2511 77.7292 21.9062C77.7656 21.797 78.2746 21.2511 76.6022 18.7764C76.5295 18.5945 76.4568 18.4853 76.4568 18.4853C77.2929 20.1958 79.8742 23.3983 81.2194 23.9078ZM81.8375 22.0882C81.5466 21.5787 81.4375 20.9964 81.4739 20.96C81.9829 21.142 82.4919 21.3239 83.0372 21.5423C83.2917 21.6515 83.5462 21.3967 83.4735 21.142C83.2917 20.2322 83.1099 19.2132 83.1463 19.1768C83.5825 19.7954 84.6005 21.3967 86.2365 22.2338C86.491 22.3429 86.491 22.7432 86.2365 22.8524C83.6916 24.2717 80.7104 23.7986 79.0744 21.6151C80.8195 22.2338 81.2194 22.3793 81.6193 22.3793C81.8011 22.4157 81.9102 22.2338 81.8375 22.0882Z" fill="#888888"/>
<path d="M82.7465 14.8826H83.1464V13.3905H83.7281V12.9902H82.1648V13.3905H82.7465V14.8826Z" fill="#888888"/>
<path d="M84.3825 13.6453L84.8914 14.8826H85.2186L85.7276 13.6453V14.8826H86.1275V12.9902H85.5459L85.0732 14.2639L84.5279 12.9902H83.9825V14.8826H84.3825V13.6453Z" fill="#888888"/>
</g>
<defs>
<clipPath id="clip0_1_496">
<rect width="87" height="38" fill="white" transform="translate(0 0.21875)"/>
</clipPath>
</defs>
</svg>
