<svg width="130" height="34" viewBox="0 0 130 34" fill="none" xmlns="http://www.w3.org/2000/svg">
<g clip-path="url(#clip0_1_511)">
<path d="M84.6157 11.691H82.906V8.74766H80.3733V11.691H78.6537V4.64258H80.3733V7.44061H82.906V4.64258H84.6157V11.691Z" fill="#888888"/>
<path d="M87.5404 11.691H85.8258V4.64258H87.5404V11.691Z" fill="#888888"/>
<path d="M94.5751 10.8196C94.3105 11.1101 93.9235 11.344 93.414 11.5215C92.9044 11.699 92.346 11.7878 91.7386 11.7878C90.8045 11.7878 90.0582 11.5054 89.4998 10.9406C88.9412 10.3759 88.6424 9.59007 88.6032 8.58316L88.5984 7.97321C88.5984 7.27935 88.7224 6.67424 88.9706 6.15787C89.2188 5.63829 89.5732 5.23972 90.0337 4.96217C90.4975 4.6814 91.0331 4.54102 91.6405 4.54102C92.5289 4.54102 93.218 4.74273 93.7079 5.14613C94.2011 5.54631 94.4885 6.14497 94.5702 6.9421H92.9143C92.8556 6.54838 92.7281 6.26761 92.5322 6.09979C92.3363 5.93197 92.0586 5.84806 91.6993 5.84806C91.2682 5.84806 90.9351 6.02879 90.7 6.39023C90.4648 6.75169 90.3456 7.26806 90.3423 7.93932V8.36533C90.3423 9.06887 90.4632 9.59814 90.7049 9.95314C90.9498 10.3049 91.3335 10.4808 91.8561 10.4808C92.3036 10.4808 92.6367 10.3823 92.8555 10.1855V9.09146H91.6602V7.9248H94.5751V10.8196Z" fill="#888888"/>
<path d="M101.537 11.691H99.8269V8.74766H97.2941V11.691H95.5746V4.64258H97.2941V7.44061H99.8269V4.64258H101.537V11.691Z" fill="#888888"/>
<path d="M82.3329 18.4567C82.3329 18.2083 82.243 18.0147 82.0634 17.8759C81.887 17.7371 81.5751 17.5935 81.1278 17.4451C80.6803 17.2966 80.3145 17.153 80.0303 17.0142C79.1061 16.5657 78.6439 15.9492 78.6439 15.165C78.6439 14.7745 78.7582 14.4307 78.9868 14.1339C79.2188 13.8337 79.5453 13.6014 79.9667 13.4368C80.3879 13.269 80.8615 13.1851 81.3873 13.1851C81.9002 13.1851 82.359 13.2754 82.764 13.4561C83.1722 13.6369 83.489 13.8951 83.7143 14.2307C83.9398 14.5632 84.0524 14.9439 84.0524 15.3731H82.3378C82.3378 15.0859 82.2479 14.8633 82.0683 14.7051C81.892 14.547 81.6519 14.4678 81.3482 14.4678C81.0412 14.4678 80.7978 14.5357 80.6182 14.6712C80.4418 14.8035 80.3536 14.9729 80.3536 15.1795C80.3536 15.3603 80.4517 15.5248 80.6476 15.6733C80.8435 15.8186 81.1881 15.9701 81.6813 16.1283C82.1745 16.2833 82.5794 16.4511 82.8962 16.6318C83.667 17.0707 84.0524 17.6758 84.0524 18.4471C84.0524 19.0635 83.8172 19.5476 83.3469 19.8994C82.8767 20.2512 82.2315 20.4271 81.4118 20.4271C80.8338 20.4271 80.3095 20.3254 79.8392 20.122C79.3723 19.9155 79.0195 19.6348 78.781 19.2797C78.546 18.9216 78.4284 18.51 78.4284 18.0453H80.1528C80.1528 18.4229 80.2507 18.702 80.4468 18.8828C80.646 19.0604 80.9677 19.149 81.4118 19.149C81.6959 19.149 81.9197 19.0894 82.0831 18.97C82.2496 18.8474 82.3329 18.6763 82.3329 18.4567Z" fill="#888888"/>
<path d="M87.359 17.7068L86.6535 18.4716V20.3305H84.934V13.2822H86.6535V16.3901L87.2512 15.4944L88.7896 13.2822H90.9157L88.5054 16.3997L90.9157 20.3305H88.8777L87.359 17.7068Z" fill="#888888"/>
<path d="M93.184 20.3305H91.4693V13.2822H93.184V20.3305Z" fill="#888888"/>
<path d="M96.099 19.0234H99.0921V20.3305H94.3794V13.2822H96.099V19.0234Z" fill="#888888"/>
<path d="M101.536 19.0234H104.53V20.3305H99.8169V13.2822H101.536V19.0234Z" fill="#888888"/>
<path d="M84.253 23.2334H82.1122V28.9698H80.3927V23.2334H78.2909V21.9214H84.253V23.2334Z" fill="#888888"/>
<path d="M87.6333 26.4817H86.7025V28.9698H84.983V21.9214H87.7901C88.636 21.9214 89.2974 22.1071 89.7742 22.4782C90.2509 22.8493 90.4894 23.3737 90.4894 24.0514C90.4894 24.542 90.3882 24.9487 90.1857 25.2714C89.9865 25.5941 89.6729 25.8555 89.245 26.0556L90.7344 28.8972V28.9698H88.8923L87.6333 26.4817ZM86.7025 25.1697H87.7901C88.1167 25.1697 88.3617 25.0858 88.5249 24.9181C88.6915 24.747 88.7748 24.5097 88.7748 24.2064C88.7748 23.903 88.6915 23.6658 88.5249 23.4948C88.3584 23.3205 88.1134 23.2334 87.7901 23.2334H86.7025V25.1697Z" fill="#888888"/>
<path d="M95.5795 27.6531H93.223L92.8115 28.9698H90.9744L93.5905 21.9214H95.2071L97.8428 28.9698H95.9959L95.5795 27.6531ZM93.6345 26.3412H95.1678L94.3987 23.8966L93.6345 26.3412Z" fill="#888888"/>
<path d="M100.199 28.9698H98.4846V21.9214H100.199V28.9698Z" fill="#888888"/>
<path d="M107.351 28.9698H105.642L103.114 24.584V28.9698H101.394V21.9214H103.114L105.637 26.3073V21.9214H107.351V28.9698Z" fill="#888888"/>
<path d="M110.271 28.9698H108.557V21.9214H110.271V28.9698Z" fill="#888888"/>
<path d="M117.424 28.9698H115.714L113.186 24.584V28.9698H111.467V21.9214H113.186L115.709 26.3073V21.9214H117.424V28.9698Z" fill="#888888"/>
<path d="M124.351 28.0984C124.087 28.3888 123.7 28.6228 123.19 28.8004C122.681 28.9778 122.122 29.0666 121.515 29.0666C120.581 29.0666 119.834 28.7842 119.276 28.2194C118.717 27.6547 118.418 26.8688 118.379 25.8619L118.374 25.2519C118.374 24.5581 118.499 23.9529 118.747 23.4367C118.995 22.917 119.349 22.5185 119.81 22.2409C120.274 21.9602 120.809 21.8198 121.417 21.8198C122.305 21.8198 122.994 22.0215 123.484 22.4248C123.977 22.8251 124.265 23.4236 124.346 24.2209H122.69C122.632 23.8271 122.504 23.5463 122.308 23.3784C122.112 23.2108 121.835 23.1268 121.475 23.1268C121.044 23.1268 120.711 23.3075 120.476 23.6689C120.241 24.0304 120.122 24.5468 120.118 25.2181V25.6441C120.118 26.3476 120.239 26.8769 120.481 27.2318C120.726 27.5836 121.11 27.7595 121.632 27.7595C122.08 27.7595 122.413 27.6611 122.632 27.4642V26.3703H121.436V25.2035H124.351V28.0984Z" fill="#888888"/>
<path fill-rule="evenodd" clip-rule="evenodd" d="M122.918 10.6868C122.864 10.7399 122.834 10.812 122.834 10.8871V18.9135C122.834 19.07 122.705 19.1968 122.547 19.1968H109.791C109.632 19.1968 109.504 19.07 109.504 18.9135V6.3084C109.504 6.15196 109.632 6.02514 109.791 6.02514H122.572C122.648 6.02514 122.72 5.9953 122.774 5.94217L123.348 5.37565C123.528 5.19721 123.4 4.89209 123.145 4.89209H108.644C108.486 4.89209 108.357 5.01891 108.357 5.17536V20.0466C108.357 20.2031 108.486 20.3298 108.644 20.3298H123.694C123.852 20.3298 123.98 20.2031 123.98 20.0466V10.3206C123.98 10.0682 123.671 9.94184 123.491 10.1203L122.918 10.6868Z" fill="#888888"/>
<path d="M111.439 11.0825L113.536 9.59441C113.725 9.46047 113.987 9.49902 114.129 9.68146L116.367 12.5733C116.526 12.7798 116.835 12.7974 117.017 12.6105L128.739 0.62379C128.887 0.472441 129.125 0.450962 129.298 0.573291L129.63 0.807771C129.831 0.949451 129.87 1.2286 129.716 1.41895L116.585 17.6383C116.41 17.8544 116.076 17.8501 115.907 17.6295L111.347 11.6843C111.201 11.4939 111.242 11.2219 111.439 11.0825Z" fill="#888888"/>
<path d="M71.5215 0.21875H2.86659C1.28342 0.21875 0 1.48696 0 3.05137V30.3862C0 31.9506 1.28342 33.2188 2.86659 33.2188H71.5215C73.1047 33.2188 74.3881 31.9506 74.3881 30.3862V3.05137C74.3881 1.48696 73.1047 0.21875 71.5215 0.21875Z" fill="#888888"/>
<path d="M26.4375 28.8282H20.5023V18.6108H11.7099V28.8282H5.74072V4.36035H11.7099V14.0736H20.5023V4.36035H26.4375V28.8282Z" fill="white"/>
<path d="M42.3051 22.3245C42.3051 21.4618 41.9933 20.7896 41.3697 20.3078C40.7575 19.8261 39.6747 19.3276 38.1216 18.8122C36.5683 18.2969 35.2984 17.7984 34.312 17.3166C31.1036 15.7593 29.4993 13.6195 29.4993 10.8971C29.4993 9.54153 29.896 8.34838 30.6896 7.31769C31.4947 6.27579 32.6285 5.46915 34.091 4.8978C35.5535 4.31523 37.1975 4.02393 39.0228 4.02393C40.8028 4.02393 42.3958 4.33763 43.8016 4.96501C45.2188 5.5924 46.3186 6.48865 47.1009 7.65378C47.8832 8.80772 48.2743 10.1297 48.2743 11.6197H42.3221C42.3221 10.6227 42.0102 9.84962 41.3868 9.30066C40.7745 8.7517 39.9411 8.47722 38.8868 8.47722C37.821 8.47722 36.9764 8.71248 36.3529 9.18302C35.7406 9.64236 35.4344 10.2305 35.4344 10.9476C35.4344 11.5749 35.7747 12.1463 36.4549 12.6616C37.1352 13.1658 38.3313 13.6923 40.0432 14.2413C41.7553 14.7791 43.161 15.3616 44.2608 15.9891C46.9365 17.5126 48.2743 19.6133 48.2743 22.2908C48.2743 24.4307 47.4581 26.1111 45.8254 27.3323C44.1927 28.5534 41.9536 29.164 39.1078 29.164C37.1011 29.164 35.2815 28.811 33.6488 28.1053C32.0275 27.3882 30.8032 26.4137 29.9754 25.1812C29.1592 23.9377 28.751 22.5093 28.751 20.896H34.7373C34.7373 22.2068 35.0774 23.1758 35.7576 23.8033C36.4492 24.4195 37.566 24.7275 39.1078 24.7275C40.0942 24.7275 40.8709 24.5202 41.4378 24.1058C42.016 23.68 42.3051 23.0862 42.3051 22.3245Z" fill="white"/>
<path d="M70.0773 8.91446H62.6455V28.8282H56.6762V8.91446H49.3805V4.36035H70.0773V8.91446Z" fill="white"/>
</g>
<defs>
<clipPath id="clip0_1_511">
<rect width="130" height="33" fill="white" transform="translate(0 0.21875)"/>
</clipPath>
</defs>
</svg>
