<svg width="83" height="89" viewBox="0 0 83 89" fill="none" xmlns="http://www.w3.org/2000/svg">
<path fill-rule="evenodd" clip-rule="evenodd" d="M70.5449 0.105957L68.3605 0.12734L67.035 15.9853L66.8546 15.4952L66.3625 14.1583L65.1957 14.9756H65.1956L65.1954 14.9758L65.1945 14.9764L65.1907 14.979L65.1758 14.9895L65.1174 15.0304L64.8979 15.1837C64.71 15.3148 64.4447 15.4996 64.1353 15.7143C63.516 16.1441 62.7225 16.6918 62.0204 17.1674C61.1986 17.7242 60.2667 18.4921 59.5585 19.1021C59.2003 19.4107 58.8913 19.6859 58.6716 19.8842C58.5617 19.9834 58.4738 20.0636 58.4131 20.1193L58.3429 20.184L58.3242 20.2013L58.3191 20.206L58.3177 20.2074L58.3172 20.2078L58.3171 20.2079C58.317 20.208 58.317 20.208 59.0644 21.011L58.317 20.208L57.9674 20.5334V21.011V24.889H57.8232V27.0831H57.9674V28.6304L57.3129 29.2879L56.9934 29.6089V30.0618V39.4144L56.624 39.6L56.0194 39.9037V40.5803V82.7819H53.5229V25.1651V25.0316L53.4908 24.902L52.4258 25.1651C53.4908 24.902 53.4908 24.9018 53.4907 24.9016L53.4906 24.9011L53.4903 24.8998L53.4893 24.8958L53.4858 24.882L53.4732 24.8324C53.4623 24.7898 53.4463 24.7284 53.4253 24.65C53.3833 24.4932 53.3212 24.2682 53.2394 23.9896C53.0761 23.4329 52.8334 22.6587 52.5145 21.7846C51.8849 20.059 50.9263 17.8537 49.6444 16.1802C48.4986 14.6843 46.5883 12.9658 45.026 11.6601C44.2333 10.9976 43.5091 10.4241 42.983 10.0161C42.7197 9.81192 42.5056 9.64882 42.3566 9.53632C42.2821 9.48012 42.2239 9.43642 42.1839 9.40662L42.138 9.37242L42.1258 9.36332L42.1224 9.36082L42.1215 9.36012L42.1212 9.35992C42.121 9.35982 42.121 9.35972 41.4689 10.242L42.121 9.35972L41.4345 8.85239L40.774 9.39312L37.7857 11.8395L37.3836 12.1687V12.6884V24.068H36.4885H30.1985H29.1014V25.1651V87.5486V88.6456H30.1985H56.4102H57.5072V88.6435H81.1416H82.2386V87.5465V40.5803V40.0333L81.8018 39.7041L81.2646 39.2994V29.8172V29.2702L80.8278 28.941L80.2907 28.5363V20.7664V20.3352L79.997 20.0194L79.1936 20.7664C79.997 20.0194 79.997 20.0194 79.9969 20.0193L79.9968 20.0191L79.9964 20.0187L79.9951 20.0173L79.9908 20.0127L79.9753 19.9962L79.9181 19.9354C79.8687 19.8833 79.7975 19.8085 79.7082 19.7162C79.53 19.5317 79.2786 19.276 78.9852 18.9895C78.4081 18.4262 77.6316 17.708 76.9167 17.1883C76.2187 16.6808 75.4104 16.123 74.7808 15.6947C74.4651 15.4799 74.1925 15.2965 73.9987 15.1667C73.9018 15.1018 73.8245 15.0502 73.7713 15.0148L73.7101 14.9741L73.694 14.9634L73.6898 14.9607L73.6887 14.9599L73.6884 14.9597H73.6883L73.0823 15.8741L73.6883 14.9596L72.4421 14.1338L72.1126 15.2773L70.5449 0.105957ZM60.1615 27.0831V29.0834V29.1808H78.0966V29.0834V27.0831H60.1615ZM78.0966 24.889V21.2058C77.9323 21.0363 77.7094 20.8103 77.4526 20.5596C76.8929 20.0133 76.2085 19.386 75.6265 18.963C75.0165 18.5194 74.3106 18.0301 73.7191 17.6263L72.6564 21.3148L70.511 21.1238L69.5691 12.0086L68.809 21.1024L66.6863 21.39L65.2863 17.5862C64.68 18.0065 63.9256 18.5269 63.2511 18.9839C62.5382 19.4668 61.6844 20.1667 60.9906 20.7644C60.6585 21.0505 60.3702 21.3069 60.1615 21.4951V24.889H78.0966ZM59.1875 31.3748H79.0706V34.1967H59.1875V31.3748ZM59.1875 36.3907V38.8462H79.0706V36.3907H59.1875ZM58.6448 41.0403H79.9291L80.0446 41.1273V43.8578H58.2135V41.2569L58.5828 41.0714L58.6448 41.0403ZM58.2135 46.0519V48.8695H80.0446V46.0519H58.2135ZM58.2135 51.0635H80.0446V53.8811H58.2135V51.0635ZM58.2135 56.0752V58.8927H80.0446V56.0752H58.2135ZM58.2135 61.0868H80.0446V63.8979H58.2135V61.0868ZM58.2135 66.092V68.9138H80.0446V66.092H58.2135ZM58.2135 71.1079H80.0446V73.9255H58.2135V71.1079ZM58.2135 76.1195V86.4495H64.4994V79.672V78.575H65.5965H71.9561H73.0531V79.672V86.4495H80.0446V76.1195H58.2135ZM66.6935 80.7691V86.4488H70.859V80.7691H66.6935ZM35.7942 82.8689H36.8913H46.3174H47.4145V83.9659V86.4515H55.3131V84.976H52.4258H51.3288V83.8789V25.3039L51.3059 25.2178C51.268 25.0761 51.2105 24.8677 51.1341 24.6071C50.981 24.0852 50.7528 23.3572 50.4534 22.5366C49.8463 20.873 48.9788 18.9193 47.9026 17.5144C46.9184 16.2295 45.1765 14.6453 43.619 13.3436C42.8517 12.7023 42.1492 12.1459 41.6385 11.7499L41.4946 11.6387L39.5777 13.208V26.6329V27.7299H38.4807H36.4885H35.3915V26.6329V26.2621H31.2955V86.4515H35.7942V83.9659V82.8689ZM37.9883 85.0629V86.449H45.2204V85.0629H37.9883ZM7.20858 20.5909H6.45595L6.18506 21.2931L7.20858 21.6879C6.18506 21.2931 6.18496 21.2934 6.18483 21.2937L6.18449 21.2946L6.1835 21.2972L6.18031 21.3055L6.1691 21.3351C6.15952 21.3605 6.14577 21.3972 6.12811 21.4452C6.09279 21.541 6.04183 21.6817 5.97728 21.8658C5.84819 22.2341 5.66471 22.7765 5.4434 23.4829C5.00081 24.8957 4.40668 26.9651 3.79322 29.6106C2.56646 34.901 1.26138 42.4996 0.93794 51.7612C0.732133 57.6544 1.47028 65.1345 2.24993 71.1011C2.64087 74.093 3.04443 76.7203 3.35032 78.5999C3.46062 79.2777 3.55826 79.8585 3.63807 80.3244H2.0343H0.937271V81.4215V87.5417V88.6387H2.0343H25.3185H26.4156V87.5417V84.3492H26.4158V83.2522V79.672V78.575H26.4156V76.4793H26.4158V75.3822V71.8021V70.7051H26.4156V68.6008H26.4158V67.5038V63.9236V62.8266H26.4156V60.7287H26.4158V59.6317V56.0516V54.9546H26.4156V52.8567H26.4158V51.7597V48.1795V47.0825H26.4156V44.9782H26.4158V43.8812V40.301V39.204H26.4156V37.104H26.4158V36.007V32.4268V31.3298H26.4156V23.4016V22.8124L25.9244 22.487L23.3372 20.7734L23.0618 20.5909H22.7314H7.20858ZM24.2215 78.575V76.4793H11.1863H10.0893V75.3822V71.8021V70.7051H11.1863H24.2215V68.6008H11.1863H10.0893V67.5038V63.9236V62.8266H11.1863H24.2215V60.7287H11.1863H10.0893V59.6317V56.0516V54.9546H11.1863H24.2215V52.8567H11.1863H10.0893V51.7597V48.1795V47.0825H11.1863H24.2215V44.9782H11.1863H10.0893V43.8812V40.301V39.204H11.1863H24.2215V37.104H11.1863H10.0893V36.007V32.4268V31.3298H11.1863H24.2215V23.9908L22.401 22.785H7.98065C7.8651 23.1206 7.71415 23.5738 7.53713 24.1389C7.10974 25.5031 6.53053 27.519 5.93057 30.1063C4.73049 35.2815 3.44843 42.7387 3.13066 51.8378C2.9315 57.5407 3.64862 64.8715 4.42548 70.8169C4.8128 73.781 5.21279 76.3849 5.5159 78.2475C5.66742 79.1786 5.79466 79.924 5.88389 80.4359C5.92851 80.6918 5.96361 80.8894 5.9875 81.0226L6.01469 81.1733L6.02157 81.2111L6.02326 81.2203L6.02366 81.2225L6.02375 81.223L4.94483 81.4215L6.02376 81.223L6.26204 82.5185H4.94483H3.13133V86.4447H24.2215V84.3492H11.1863H10.0893V83.2522V79.672V78.575H11.1863H24.2215ZM24.2215 80.7691H12.2833V82.1551H24.2215V80.7691ZM24.2215 74.2852V72.8992H12.2833V74.2852H24.2215ZM24.2215 65.0207H12.2833V66.4067H24.2215V65.0207ZM24.2215 58.5347V57.1486H12.2833V58.5347H24.2215ZM24.2215 50.6626V49.2766H12.2833V50.6626H24.2215ZM24.2215 41.3981H12.2833V42.7841H24.2215V41.3981ZM24.2215 34.9099V33.5239H12.2833V34.9099H24.2215ZM36.8913 39.9197H35.7942V41.0167V44.5968V45.6938H36.8913H46.3174H47.4145V44.5968V41.0167V39.9197H46.3174H36.8913ZM37.9883 43.4998V42.1137H45.2204V43.4998H37.9883ZM35.7942 31.3298H36.8913H46.3174H47.4145V32.4268V36.007V37.104H46.3174H36.8913H35.7942V36.007V32.4268V31.3298ZM37.9883 33.5239V34.9099H45.2204V33.5239H37.9883ZM36.8913 48.5116H35.7942V49.6087V53.1888V54.2858H36.8913H46.3174H47.4145V53.1888V49.6087V48.5116H46.3174H36.8913ZM37.9883 52.0918V50.7057H45.2204V52.0918H37.9883ZM35.7942 57.1015H36.8913H46.3174H47.4145V58.1985V61.7786V62.8757H46.3174H36.8913H35.7942V61.7786V58.1985V57.1015ZM37.9883 59.2955V60.6816H45.2204V59.2955H37.9883ZM35.7942 65.6892H36.8913H46.3174H47.4145V66.7862V70.3663V71.4634H46.3174H36.8913H35.7942V70.3663V66.7862V65.6892ZM37.9883 67.8832V69.2693H45.2204V67.8832H37.9883ZM36.8913 74.279H35.7942V75.376V78.9562V80.0532H36.8913H46.3174H47.4145V78.9562V75.376V74.279H46.3174H36.8913ZM37.9883 77.8591V76.4731H45.2204V77.8591H37.9883Z" fill="#0A8BFE"/>
</svg>
